PathFileType  4	(X/Y/Z) C:\Users\antoi\Documents\MyRepositories\mobilecap\ResultsAnalysis
DataRate	CameraRate	NumFrames	NumMarkers	Units	OrigDataRate	OrigDataStartFrame	OrigNumFrames
100.0	100.0	5	51	mm	100.0	55	146
Frame#	Time	r_knee			r_shank_antsup			r_ankle			r_calc			r_5meta			r_toe			L_knee			L_shank_antsup			L_ankle			L_calc			L_5meta			L_toe			r_sh2			r_sh3			r_sh4			L_sh2			L_sh3			r_thigh1			r_thigh2			r_thigh3			r_thigh4			r_thigh5			L_thigh1			L_thigh2			L_thigh3			L_thigh4			r.ASIS			r.PSIS			L.ASIS			L.PSIS			C7			R_Shoulder			L_Shoulder			R_Sternum			L_Sternum			R_humerus			R_elbow_med			R_elbow_lat			R_forearm			R_wrist_radius			R_wrist_ulna			L_humerus			L_elbow_med			L_elbow_lat			L_forearm			L_wrist_radius			L_wrist_ulna			R_HJC			L_HJC			R_HJC_reg			L_HJC_reg			
		X1	Y1	Z1	X2	Y2	Z2	X3	Y3	Z3	X4	Y4	Z4	X5	Y5	Z5	X6	Y6	Z6	X7	Y7	Z7	X8	Y8	Z8	X9	Y9	Z9	X10	Y10	Z10	X11	Y11	Z11	X12	Y12	Z12	X13	Y13	Z13	X14	Y14	Z14	X15	Y15	Z15	X16	Y16	Z16	X17	Y17	Z17	X18	Y18	Z18	X19	Y19	Z19	X20	Y20	Z20	X21	Y21	Z21	X22	Y22	Z22	X23	Y23	Z23	X24	Y24	Z24	X25	Y25	Z25	X26	Y26	Z26	X27	Y27	Z27	X28	Y28	Z28	X29	Y29	Z29	X30	Y30	Z30	X31	Y31	Z31	X32	Y32	Z32	X33	Y33	Z33	X34	Y34	Z34	X35	Y35	Z35	X36	Y36	Z36	X37	Y37	Z37	X38	Y38	Z38	X39	Y39	Z39	X40	Y40	Z40	X41	Y41	Z41	X42	Y42	Z42	X43	Y43	Z43	X44	Y44	Z44	X45	Y45	Z45	X46	Y46	Z46	X47	Y47	Z47	X48	Y48	Z48	X49	Y49	Z49	X50	Y50	Z50	X51	Y51	Z51	

55	0.54000000	331.12485	517.51317	-69.97377	327.37405	430.15467	-66.66917	144.14210	113.79434	-112.41288	72.25679	70.71394	-155.43203	277.43161	34.38861	-85.56297	309.03090	57.24092	-147.48343	633.72266	531.91394	-343.52440	708.55649	439.96398	-358.60024	800.29852	116.86930	-335.13744	755.82006	46.95741	-295.52798	972.42607	108.94089	-365.60030	977.08028	146.82271	-302.65807	285.43642	325.86214	-67.54733	258.44831	457.29707	-42.16178	206.93480	354.43129	-51.82024	621.01123	413.18792	-365.38037	669.90772	301.97611	-366.80196	473.07298	815.57560	-15.86003	466.02578	708.78011	-41.16351	404.94298	684.79443	-19.23288	360.50656	821.60651	-15.70874	353.33675	706.66823	-30.52075	571.44788	849.18824	-364.42197	630.67249	723.63267	-365.79869	466.10103	796.79109	-369.72614	533.85124	673.22602	-371.51978	529.90482	1016.70509	-56.18625	343.91859	1069.55397	-145.16534	544.43208	1008.39855	-315.43631	346.18009	1058.58616	-248.97699	405.37007	1562.68047	-292.78399	453.09944	1576.41394	-128.13250	461.42623	1507.63796	-432.47922	558.16109	1495.37817	-240.87619	558.96248	1478.93676	-296.24929	385.35818	1355.61724	34.96450	346.30686	1245.99365	-10.88260	352.15339	1276.14156	67.62839	436.63138	1149.42122	124.80176	493.98053	1052.95446	147.94247	449.65001	1049.95738	160.68877	359.90486	1260.62210	-478.69514	301.73774	1197.41022	-398.61553	308.76995	1188.09040	-467.08971	305.90720	1013.94099	-477.04026	312.83584	915.07899	-466.47984	270.67989	918.22148	-467.11788	441.09134	944.31009	-64.73131	454.71932	935.06849	-294.50706	452.54236	956.20728	-88.13096	456.25832	938.19671	-258.60323	
56	0.55000000	342.15413	516.07109	-69.60918	336.39570	428.53831	-66.09749	146.00902	116.36510	-112.12022	73.37971	74.61300	-155.40108	277.46455	34.29099	-85.43067	309.06229	57.15947	-147.38869	647.27923	530.24387	-342.17232	721.60871	437.46136	-356.53157	810.25143	114.35415	-332.94301	765.66726	43.80767	-295.40648	982.80088	109.00639	-361.49981	985.99000	145.88924	-297.85797	291.99048	325.22395	-67.06652	267.97885	457.31627	-41.87942	214.07101	355.70469	-51.63231	634.03653	411.48858	-364.62040	681.86746	299.88140	-365.72803	484.80164	813.76119	-15.75512	477.70053	706.86586	-40.47198	416.38248	683.15763	-19.25076	372.24619	820.13553	-16.22762	364.89576	705.16352	-30.85451	585.72721	848.23674	-363.92668	644.87641	722.30703	-364.56964	480.43798	795.65920	-369.70378	547.93529	671.99481	-370.64291	542.59843	1014.82107	-55.67772	357.20506	1067.59137	-145.86561	558.58349	1006.99793	-315.06587	359.96049	1056.87432	-249.60764	419.37433	1560.18628	-295.98903	467.16253	1575.37254	-131.55505	475.11463	1503.78613	-435.33049	571.99779	1492.92688	-243.66535	572.75854	1476.08293	-298.97135	398.42096	1356.28760	33.32954	358.97783	1246.37996	-11.44747	364.79601	1277.20941	66.73701	448.91598	1150.91065	125.17954	506.28300	1054.60576	149.20579	461.94596	1051.74073	161.91843	370.22287	1258.00513	-479.60566	311.54641	1196.08548	-399.01150	317.81639	1186.39605	-467.42117	311.93237	1012.27767	-476.62754	317.09702	913.32492	-465.75319	275.08395	917.16741	-466.21654	453.92458	942.34161	-65.01628	468.90172	933.52860	-294.72450	465.56056	954.20180	-88.14236	470.09516	936.57703	-258.77598	
57	0.56000000	353.71456	514.63151	-69.24557	345.78998	426.95434	-65.50198	148.10961	119.32420	-111.84828	74.75517	79.13120	-155.38793	277.50514	34.21146	-85.33337	309.00586	57.09834	-147.38360	661.42187	528.89786	-340.77287	734.63920	434.75552	-354.38875	818.11424	111.37892	-330.70416	772.28822	41.51378	-294.94780	990.68383	105.62472	-357.43040	993.28666	141.56181	-293.21141	298.83623	324.70175	-66.60902	277.98089	457.45056	-41.61163	221.59008	357.19629	-51.48516	646.91042	410.06651	-363.70232	692.98834	297.80310	-364.29546	496.89309	812.01591	-15.83865	489.84985	704.97451	-39.88172	428.29778	681.52372	-19.39452	384.32342	818.66156	-16.79905	376.89853	703.62464	-31.28564	600.37777	847.74582	-363.25477	659.63452	721.50390	-363.06705	495.24626	794.79479	-369.80264	562.68947	671.12505	-369.71118	555.47711	1013.01996	-55.23356	370.66506	1065.73069	-146.62585	572.90162	1005.84320	-314.76872	373.87412	1055.40681	-250.29772	433.40696	1557.79631	-299.25579	481.19613	1574.43652	-135.01878	488.87692	1500.07207	-438.22073	585.79221	1490.60550	-246.45823	586.59863	1473.41262	-301.70108	411.47522	1357.00923	31.53291	371.72540	1246.85211	-12.22531	377.44695	1278.31957	65.63191	461.19203	1152.42821	125.40236	518.43571	1056.32361	150.38900	474.13442	1053.55202	163.02157	380.78100	1255.54682	-480.61344	321.62195	1194.86896	-399.56927	327.23320	1184.79534	-467.87802	318.55683	1010.76896	-476.34229	322.07822	911.81818	-465.20873	280.18339	916.31281	-465.37611	466.92885	940.45440	-65.43468	483.25392	932.22991	-295.07278	478.81411	952.19202	-88.26361	484.10421	935.18588	-259.08660	
58	0.57000000	365.75800	513.24335	-68.86997	355.53138	425.47738	-64.83872	150.48177	122.70936	-111.55857	76.43956	84.30380	-155.39468	277.56411	34.14503	-85.28014	308.88040	57.00496	-147.47142	675.94359	527.84577	-339.36940	747.68516	432.06746	-352.17409	824.57375	108.28189	-328.57968	776.48602	40.31769	-294.30293	996.80668	99.42262	-353.62935	999.64898	134.46596	-288.92416	305.95169	324.39286	-66.11909	288.40063	457.79015	-41.36841	229.48456	358.98604	-51.39436	659.73850	408.94405	-362.69306	703.69557	295.89428	-362.67114	509.35755	810.37335	-16.09471	502.46157	703.15916	-39.40885	440.67899	679.92928	-19.62651	396.73737	817.24028	-17.42806	389.33808	702.09325	-31.79583	615.33088	847.51136	-362.46678	674.73141	721.04395	-361.34197	510.39184	794.18873	-370.00069	577.84630	670.54037	-368.76694	568.59383	1011.33604	-54.85127	384.30438	1064.02607	-147.44899	587.38715	1004.94120	-314.54630	387.91132	1054.20504	-251.05601	447.45515	1555.53894	-302.57398	495.19286	1573.62910	-138.51761	502.72223	1496.53623	-441.13669	599.58469	1488.46430	-249.25253	600.47889	1470.94018	-304.42605	424.48928	1357.81354	29.57849	384.54005	1247.42819	-13.22401	390.09053	1279.49443	64.31251	473.44704	1153.99553	125.46201	530.44203	1058.10688	151.47316	486.19504	1055.41031	163.97259	391.60021	1253.26756	-481.70660	332.02459	1193.76252	-400.24775	337.06232	1183.30172	-468.43869	325.78803	1009.41851	-476.19483	327.81474	910.53054	-464.83104	285.95249	915.68057	-464.58855	480.12637	938.69745	-65.97451	497.77222	931.18535	-295.54003	492.32745	950.24418	-88.46731	498.28355	934.03829	-259.50201	
59	0.58000000	378.26435	511.96072	-68.45400	365.62824	424.19318	-64.04130	153.19945	126.54557	-111.19041	78.51987	90.18739	-155.40983	277.66026	34.08102	-85.27580	308.73842	56.83395	-147.62214	690.64427	527.10115	-338.02417	760.80767	429.64469	-349.91372	830.26571	105.37385	-326.70954	779.16315	40.27881	-293.62163	1001.80929	91.33260	-350.30968	1005.56776	125.53799	-285.19008	313.34223	324.40316	-65.51398	299.20529	458.43337	-41.15287	237.77353	361.16164	-51.36665	672.65197	408.19589	-361.73997	714.39015	294.34708	-361.10126	522.20363	808.87875	-16.50086	515.50604	701.49192	-39.06128	453.52146	678.42257	-19.89766	409.48872	815.92889	-18.13503	402.21448	700.62073	-32.35522	630.50245	847.37844	-361.62688	689.94710	720.78875	-359.45456	525.73437	793.85875	-370.27071	593.13488	670.20025	-367.85286	581.98840	1009.81270	-54.52820	398.11364	1062.52218	-148.31367	602.00490	1004.31955	-314.38930	402.04847	1053.30291	-251.87090	461.51129	1553.45047	-305.93585	509.14372	1572.97273	-142.04126	516.65797	1493.21507	-444.06960	613.41108	1486.55633	-252.04748	614.39698	1468.68486	-307.13649	437.44169	1358.72294	27.47799	397.41226	1248.11877	-14.44389	402.71389	1280.74933	62.78686	485.65588	1155.62455	125.35671	542.32049	1059.93212	152.43728	498.11658	1057.31971	164.74229	402.70475	1251.18226	-482.87679	342.81773	1192.75324	-401.00731	347.32451	1181.93136	-469.09068	333.63643	1008.22731	-476.19420	334.32152	909.43301	-464.61255	292.37401	915.27427	-463.85216	493.53305	937.12013	-66.61563	512.43128	930.42362	-296.10854	506.11641	948.40612	-88.73692	512.62399	933.16774	-259.99430	
